test
version=1
nRows=17
nColumns=25
inDegrees=yes
endheader
time	pelvis_tilt	pelvis_list	pelvis_rotation	pelvis_tx	pelvis_ty	pelvis_tz	hip_flexion_r	hip_adduction_r	hip_rotation_r	knee_flexion_r	knee_adduction_r	knee_rotation_r	ankle_angle_r	subtalar_angle_r	mtp_angle_r	hip_flexion_l	hip_adduction_l	hip_rotation_l	knee_flexion_l	knee_adduction_l	knee_rotation_l	ankle_angle_l	subtalar_angle_l	mtp_angle_l
1.316667	0.000000	0.000000	0.000000	0.000000	0.000000	0.000000	5.419060	-1.253049	0.647289	30.834021	-0.652114	14.659101	-5.767001	12.519976	0.000000	36.818737	1.265420	1.336181	8.207423	-0.092236	3.191024	-9.180647	15.306283	0.000000
1.325000	0.000000	0.000000	0.000000	0.000000	0.000000	0.000000	5.693425	-1.986454	0.914650	32.637344	0.170556	13.170934	-8.540174	13.896283	0.000000	36.079842	1.645955	1.475095	8.744241	0.091033	3.887938	-9.249226	14.865227	0.000000
1.333333	0.000000	0.000000	0.000000	0.000000	0.000000	0.000000	6.064065	-2.779360	1.154595	34.521835	1.055043	11.609086	-11.539539	15.290473	0.000000	35.334778	2.076204	1.614735	9.291586	0.254776	4.400070	-9.089381	14.514177	0.000000
1.341667	0.000000	0.000000	0.000000	0.000000	0.000000	0.000000	6.539187	-3.625273	1.346190	36.504498	1.955295	10.071119	-14.621500	16.595341	0.000000	34.583099	2.561851	1.747920	9.822004	0.388696	4.697710	-8.749346	14.308844	0.000000
1.350000	0.000000	0.000000	0.000000	0.000000	0.000000	0.000000	7.125898	-4.511428	1.471843	38.603813	2.823229	8.662144	-17.590816	17.695139	0.000000	33.819984	3.103387	1.870072	10.300094	0.485729	4.783007	-8.289310	14.268403	0.000000
1.358333	0.000000	0.000000	0.000000	0.000000	0.000000	0.000000	7.831285	-5.419980	1.522501	40.834000	3.616649	7.477965	-20.232708	18.487383	0.000000	33.040115	3.694165	1.977528	10.691133	0.543538	4.688317	-7.767662	14.377708	0.000000
1.366667	0.000000	0.000000	0.000000	0.000000	0.000000	0.000000	8.659028	-6.327541	1.496805	43.197617	4.304986	6.589728	-22.346792	18.898464	0.000000	32.240280	4.319517	2.068301	10.969549	0.565403	4.469457	-7.230661	14.598048	0.000000
1.375000	0.000000	0.000000	0.000000	0.000000	0.000000	0.000000	9.608551	-7.207425	1.401431	45.680393	4.873098	6.034734	-23.787584	18.890190	0.000000	31.422203	4.957726	2.140443	11.124852	0.559255	4.194223	-6.707294	14.880846	0.000000
1.383333	0.000000	0.000000	0.000000	0.000000	0.000000	0.000000	10.672970	-8.030759	1.248379	48.249359	5.321862	5.815073	-24.486071	18.458176	0.000000	30.592510	5.581602	2.192458	11.162937	0.536026	3.930481	-6.209008	15.180193	0.000000
1.391667	0.000000	0.000000	0.000000	0.000000	0.000000	0.000000	11.841757	-8.770527	1.055793	50.856792	5.666371	5.904374	-24.458435	17.628883	0.000000	29.762259	6.162210	2.221122	11.102932	0.506291	3.735318	-5.733812	15.460921	0.000000
1.400000	0.000000	0.000000	0.000000	0.000000	0.000000	0.000000	13.101982	-9.403417	0.845928	53.446163	5.930923	6.257346	-23.790232	16.459177	0.000000	28.944057	6.672303	2.221740	10.970754	0.477909	3.648249	-5.272264	15.702678	0.000000
1.408333	0.000000	0.000000	0.000000	0.000000	0.000000	0.000000	14.443361	-9.913250	0.646716	55.960361	6.143386	6.818215	-22.615309	15.037251	0.000000	28.150358	7.090565	2.186532	10.791800	0.454001	3.687591	-4.813639	15.899310	0.000000
1.416667	0.000000	0.000000	0.000000	0.000000	0.000000	0.000000	15.856165	-10.289150	0.487105	58.344971	6.330125	7.525063	-21.086662	13.479227	0.000000	27.389091	7.402357	2.108614	10.584446	0.434066	3.852563	-4.350378	16.055620	0.000000
1.425000	0.000000	0.000000	0.000000	0.000000	0.000000	0.000000	17.334938	-10.527861	0.398669	60.554863	6.514088	8.315964	-19.352791	11.914765	0.000000	26.663717	7.602120	1.980998	10.356738	0.414142	4.126227	-3.880581	16.182446	0.000000
1.433333	0.000000	0.000000	0.000000	0.000000	0.000000	0.000000	18.874475	-10.631837	0.408654	62.554825	6.712743	9.133637	-17.537836	10.467134	0.000000	25.971725	7.692625	1.799969	10.106510	0.389041	4.481549	-3.407762	16.293303	0.000000
1.441667	0.000000	0.000000	0.000000	0.000000	0.000000	0.000000	20.469604	-10.610132	0.537261	64.321243	6.937641	9.930223	-15.731495	9.234672	0.000000	25.306461	7.685233	1.564727	9.824468	0.353483	4.885550	-2.939618	16.402540	0.000000
1.450000	0.000000	0.000000	0.000000	0.000000	0.000000	0.000000	22.109262	-10.475637	0.789913	65.838615	7.194066	10.668876	-13.987668	8.278757	0.000000	24.656956	7.596616	1.280157	9.498884	0.304118	5.303792	-2.485730	16.526005	0.000000
